HIERARCHY
ROOT Hips
{
	OFFSET 0.000000 0.000000 0.000000 
	CHANNELS 6 Xposition Yposition Zposition Zrotation Yrotation Xrotation
	JOINT LeftUpLeg
	{
		OFFSET 1.363060 -1.794630 0.839290 
		CHANNELS 3 Zrotation Yrotation Xrotation
		JOINT LeftLeg
		{
			OFFSET 2.448110 -6.726130 0.000000 
			CHANNELS 3 Zrotation Yrotation Xrotation
			JOINT LeftFoot
			{
				OFFSET 2.562200 -7.039590 0.000000 
				CHANNELS 3 Zrotation Yrotation Xrotation
				JOINT LeftToeBase
				{
					OFFSET 0.157640 -0.433110 2.322550 
					CHANNELS 3 Zrotation Yrotation Xrotation
					End Site
					{
						OFFSET 0.000000 0.000000 0.000000 
					}
				}
			}
		}
	}
	JOINT RightUpLeg
	{
		OFFSET -1.305520 -1.794630 0.839290 
		CHANNELS 3 Zrotation Yrotation Xrotation
		JOINT RightLeg
		{
			OFFSET -2.542530 -6.985550 0.000000 
			CHANNELS 3 Zrotation Yrotation Xrotation
			JOINT RightFoot
			{
				OFFSET -2.568260 -7.056230 0.000000 
				CHANNELS 3 Zrotation Yrotation Xrotation
				JOINT RightToeBase
				{
					OFFSET -0.164730 -0.452590 2.363150 
					CHANNELS 3 Zrotation Yrotation Xrotation
					End Site
					{
						OFFSET 0.000000 0.000000 0.000000 
					}
				}
			}
		}
	}
	JOINT Spine
	{
		OFFSET 0.028270 2.035590 -0.193380 
		CHANNELS 3 Zrotation Yrotation Xrotation
		JOINT Spine1
		{
			OFFSET 0.056720 2.048850 -0.042750 
			CHANNELS 3 Zrotation Yrotation Xrotation
			JOINT Neck1
			{
				OFFSET -0.054170 1.746240 0.172020 
				CHANNELS 3 Zrotation Yrotation Xrotation
				JOINT Head
				{
					OFFSET 0.104070 1.761360 -0.123970 
					CHANNELS 3 Zrotation Yrotation Xrotation
					End Site
					{
						OFFSET 0.000000 0.000000 0.000000 
					}
				}
			}
			JOINT LeftArm
			{
				OFFSET 3.362410 1.200890 -0.311210 
				CHANNELS 3 Zrotation Yrotation Xrotation
				JOINT LeftForeArm
				{
					OFFSET 4.983000 -0.000000 -0.000000 
					CHANNELS 3 Zrotation Yrotation Xrotation
					JOINT LeftHand
					{
						OFFSET 3.483560 -0.000000 -0.000000 
						CHANNELS 3 Zrotation Yrotation Xrotation
						JOINT LeftHandIndex1
						{
							OFFSET 0.715260 -0.000000 -0.000000 
							CHANNELS 3 Zrotation Yrotation Xrotation
							End Site
							{
								OFFSET 0.000000 0.000000 0.000000 
							}
						}
					}
				}
			}
			JOINT RightArm
			{
				OFFSET -3.136600 1.374050 -0.404650 
				CHANNELS 3 Zrotation Yrotation Xrotation
				JOINT RightForeArm
				{
					OFFSET -5.241900 -0.000000 -0.000000 
					CHANNELS 3 Zrotation Yrotation Xrotation
					JOINT RightHand
					{
						OFFSET -3.444170 -0.000000 -0.000000 
						CHANNELS 3 Zrotation Yrotation Xrotation
						JOINT RightHandIndex1
						{
							OFFSET -0.622530 -0.000000 -0.000000 
							CHANNELS 3 Zrotation Yrotation Xrotation
							End Site
							{
								OFFSET 0.000000 0.000000 0.000000 
							}
						}
					}
				}
			}
		}
	}
}
MOTION
Frames: 7
Frame Time: 0.041667
8.374812 24.364558 0.236349 175.724518 82.973159 -178.155896 -0.593216 -14.547591 -14.449196 -3.573864 5.718253 17.080229 6.574973 -5.054176 43.284613 0.614500 -5.017000 -13.957000 10.039765 10.415040 -5.702689 2.116095 -6.385788 17.103325 0.231831 -13.581669 33.463443 -0.000000 0.044400 -0.122100 3.164215 0.274053 1.416942 2.633427 0.737805 -6.891513 -7.301291 -2.608399 -8.729170 -4.294400 -1.459200 -2.861100 -53.060158 0.228688 23.856233 36.784062 -43.303338 -20.138560 0.942826 -1.845572 10.960785 -7.125000 0.000000 0.000000 62.165623 -15.320162 19.859730 -22.531461 30.946194 -7.549656 0.993720 -0.019281 5.665592 7.125000 0.000000 0.000000 
8.426877 24.499659 0.244787 177.347569 82.967336 -176.959042 -0.497238 -14.498385 -14.417916 -3.582863 5.691240 17.028719 6.566664 -5.353994 42.443981 0.672400 -5.243700 -14.605100 10.151976 10.472385 -5.440095 2.213142 -6.188373 16.636719 0.462428 -13.590625 32.317886 -0.003200 0.362600 -0.996200 3.234376 0.400521 1.582647 2.522054 0.800039 -6.967664 -7.203626 -2.588711 -8.598201 -4.270200 -1.453700 -2.832700 -53.360726 0.057995 25.010433 36.655410 -43.244330 -19.955184 0.948311 -1.843213 11.080140 -7.125000 0.000000 0.000000 62.030670 -14.971884 20.175416 -22.685777 31.072467 -7.606741 0.971809 -0.020135 5.429262 7.125000 0.000000 0.000000 
8.481205 24.621486 0.252504 178.418083 82.988854 -176.280470 -0.467442 -14.385025 -14.411922 -3.593363 5.667371 16.982667 6.566011 -5.637922 41.701769 0.721100 -5.426200 -15.128100 10.166588 10.490818 -5.264355 2.287244 -6.018365 16.214655 0.682889 -13.695301 31.320447 -0.011400 0.688400 -1.891700 3.280452 0.529219 1.750216 2.415609 0.865616 -7.014228 -7.094593 -2.573034 -8.549966 -4.248100 -1.451600 -2.832500 -53.685982 -0.020863 26.072783 36.737566 -43.309888 -19.950321 0.951107 -1.843716 11.148227 -7.125000 0.000000 0.000000 61.929292 -14.683581 20.549854 -22.918300 31.273365 -7.704329 0.946329 -0.029056 5.151618 7.125000 0.000000 0.000000 
8.536871 24.730143 0.259706 179.081740 83.038443 -175.953943 -0.476389 -14.232100 -14.445081 -3.609449 5.641388 16.941377 6.587141 -5.968490 41.078650 0.762800 -5.577400 -15.563200 10.099752 10.455892 -5.208601 2.337183 -5.886574 15.874255 0.875328 -13.844565 30.518372 -0.025400 1.028600 -2.827600 3.309251 0.654945 1.913191 2.318727 0.931336 -7.033435 -6.997668 -2.565643 -8.556888 -4.236300 -1.455100 -2.848000 -54.041313 -0.014409 27.012302 36.981045 -43.470517 -20.082540 0.950973 -1.844418 11.146868 -7.125000 0.000000 0.000000 61.856047 -14.440181 20.965481 -23.218826 31.538716 -7.840076 0.920292 -0.044264 4.820011 7.125000 0.000000 0.000000 
8.593258 24.826864 0.266806 179.419129 83.113157 -175.884969 -0.504116 -14.073760 -14.523903 -3.632606 5.611208 16.904739 6.634885 -6.370695 40.585470 0.795700 -5.693600 -15.898000 9.959020 10.375533 -5.289679 2.363346 -5.798369 15.633919 1.033936 -14.006779 29.915132 -0.043600 1.347500 -3.705600 3.322599 0.780498 2.065134 2.227728 0.998218 -7.027258 -6.887753 -2.565139 -8.636178 -4.222700 -1.463300 -2.886000 -54.413046 0.070109 27.836761 37.358651 -43.708275 -20.329842 0.948234 -1.844484 11.046055 -7.125000 0.000000 0.000000 61.817760 -14.241770 21.392449 -23.581395 31.861843 -8.013562 0.896565 -0.064342 4.437368 7.125000 0.000000 0.000000 
8.649644 24.911753 0.274112 179.535955 83.213778 -175.956138 -0.532487 -13.934509 -14.652954 -3.661493 5.579142 16.880680 6.708541 -6.859148 40.196489 0.823100 -5.788600 -16.172300 9.761335 10.261203 -5.507070 2.370071 -5.751234 15.495078 1.150215 -14.138516 29.501249 -0.064700 1.641200 -4.514900 3.324176 0.905151 2.200868 2.142951 1.065493 -6.998301 -6.764260 -2.571932 -8.778872 -4.205500 -1.476100 -2.943800 -54.794997 0.223848 28.545566 37.829860 -43.997499 -20.659837 0.943257 -1.843139 10.841274 -7.125000 0.000000 0.000000 61.809313 -14.083782 21.831011 -23.996217 32.233400 -8.222022 0.877736 -0.087376 3.999159 7.125000 0.000000 0.000000 
8.705001 24.984705 0.281932 179.543892 83.332088 -176.049552 -0.542312 -13.835237 -14.836812 -3.694500 5.545758 16.868452 6.804852 -7.427355 39.898901 0.844900 -5.862900 -16.387300 9.526885 10.108433 -5.862446 2.362211 -5.740491 15.454315 1.212523 -14.189887 29.266973 -0.088700 1.921200 -5.287900 3.317971 1.025920 2.314480 2.062724 1.130932 -6.954896 -6.627445 -2.584544 -8.969657 -4.183200 -1.492700 -3.015500 -55.175513 0.441975 29.153238 38.366185 -44.320003 -21.050070 0.936668 -1.839909 10.532272 -7.125000 0.000000 0.000000 61.826194 -13.955575 22.267363 -24.446859 32.636844 -8.457513 0.864680 -0.112492 3.515330 7.125000 0.000000 0.000000 
